# xmcd
#
# Track frame offsets: 
#        182
#        13192
#        28050
#        41807
#        56675
#        70370
#        83422
#        98980
#        113482
#        125245
#        138547
#        151415
#        165950
#        180307
#        193680
#        208712
#        222910
#        237265
#        250487
#        266722
#        281052
#
# Disc length: 3930 seconds
#
# Revision: 2
# Processed by: cddbd v1.5.2PL0 Copyright (c) Steve Scherf et al.
# Submitted via: ExactAudioCopy v1.3
#
DISCID=360f5815
DTITLE=Various Artist - Pure Vintage Blues Vol.1: You Dirty Mistreate
DTITLE=r
DYEAR=1995
DGENRE=Blues
TTITLE0=Hociel Thomas - Deep Water Blues
TTITLE1=Sippie Wallace - A Jealous Woman Like Me
TTITLE2=Sippie Wallace - The Mail Train Blues
TTITLE3=Bertha "Chippie" Hill - Lovesick Blues
TTITLE4=Grant Wilson - You Dirty Mistreater
TTITLE5=Grant Wilson - Come On Coot Do That Thing
TTITLE6=Bessie Smith - Down Hearted Blues
TTITLE7=Bessie Smith - My Sweetie Went Away
TTITLE8=Eva Taylor - Livin' High
TTITLE9=Eva Taylor - Coal Cart Blues
TTITLE10=Bertha "Chippie" Hill - Trouble In Mind
TTITLE11=Sippie Wallace - Dead Drunk Blues
TTITLE12=Sippie Wallace - Lazy Man Blues
TTITLE13=Little Delk Christian - Was It A Dream?
TTITLE14=Victoria Spivey - How Do You Do It That Way
TTITLE15=Seger Ellis - Ain't Misbehavin'
TTITLE16=Eva Taylor - Mandy, Make Up Your Mind
TTITLE17=Alberta Hunter - Nobody Knows The Way I Feel 'Dis Morning
TTITLE18=Clara Smith - Broken Busted Blues
TTITLE19=Trixie Smith - You've Got To Beat Me To Keep Me
TTITLE20=Bessie Smith - Sobbin' Hearted Blues
EXTD=YEAR: 1995
EXTT0=
EXTT1=
EXTT2=
EXTT3=
EXTT4=
EXTT5=
EXTT6=
EXTT7=
EXTT8=
EXTT9=
EXTT10=
EXTT11=
EXTT12=
EXTT13=
EXTT14=
EXTT15=
EXTT16=
EXTT17=
EXTT18=
EXTT19=
EXTT20=
PLAYORDER=
